<svg xmlns="http://www.w3.org/2000/svg" width="780" height="480" viewBox="0 0 780 480"><rect width="100%" height="100%" fill="#DDDDDD"/><path fill="#999999" d="M159.565 202.765h51.45v5.51q0 2.47-.52 3.99-.51 1.52-1.03 2.55l-28.22 58.09q-.87 1.81-2.47 3.07t-4.27 1.26h-9.22l28.79-56.91q.97-1.75 1.93-3.22.95-1.46 2.13-2.8h-35.63q-1.19 0-2.06-.88-.88-.87-.88-2.06zm84.82 65.35q3.14 0 5.51-.9t3.99-2.49q1.63-1.6 2.45-3.82.82-2.21.82-4.79 0-6.12-3.4-9.27-3.39-3.14-9.37-3.14-5.97 0-9.37 3.14-3.4 3.15-3.4 9.27 0 2.58.82 4.79.83 2.22 2.45 3.82 1.62 1.59 3.99 2.49t5.51.9m0-56.59q-2.83 0-4.89.87-2.06.88-3.43 2.34-1.36 1.47-2 3.38-.65 1.9-.65 4.01 0 2.22.54 4.31.54 2.08 1.83 3.7 1.29 1.63 3.4 2.6 2.11.98 5.2.98t5.2-.98q2.11-.97 3.4-2.6 1.29-1.62 1.83-3.7.54-2.09.54-4.31 0-2.11-.67-4.01-.67-1.91-2.01-3.38-1.34-1.46-3.4-2.34-2.06-.87-4.89-.87m12.57 26.88q6.8 2.21 10.04 6.77t3.24 11.15q0 4.94-1.88 8.96t-5.27 6.85q-3.4 2.83-8.17 4.38-4.76 1.54-10.53 1.54t-10.53-1.54q-4.76-1.55-8.16-4.38t-5.28-6.85-1.88-8.96q0-6.59 3.24-11.15 3.25-4.56 10.05-6.77-5.41-2.27-8.12-6.44-2.7-4.17-2.7-10.04 0-4.22 1.73-7.88 1.72-3.66 4.81-6.36t7.39-4.22 9.45-1.52 9.45 1.52 7.39 4.22 4.82 6.36q1.72 3.66 1.72 7.88 0 5.87-2.7 10.04-2.71 4.17-8.11 6.44m74.47 1.6q0 9.73-2.09 16.91-2.09 7.19-5.77 11.87-3.68 4.69-8.7 6.98t-10.84 2.29-10.79-2.29-8.63-6.98q-3.65-4.68-5.71-11.87-2.06-7.18-2.06-16.91 0-9.79 2.06-16.95t5.71-11.84q3.66-4.69 8.63-6.98t10.79-2.29 10.84 2.29 8.7 6.98q3.68 4.68 5.77 11.84t2.09 16.95m-13.14 0q0-8.09-1.18-13.39-1.19-5.31-3.17-8.45t-4.56-4.4q-2.57-1.27-5.35-1.27-2.73 0-5.28 1.27-2.55 1.26-4.51 4.4-1.95 3.14-3.11 8.45-1.16 5.3-1.16 13.39 0 8.08 1.16 13.39 1.16 5.3 3.11 8.44 1.96 3.14 4.51 4.4 2.55 1.27 5.28 1.27 2.78 0 5.35-1.27 2.58-1.26 4.56-4.4t3.17-8.44q1.18-5.31 1.18-13.39m94.92 20.18-6.75 6.65-17.46-17.46-17.61 17.56-6.75-6.64 17.62-17.67-16.79-16.79 6.69-6.69 16.79 16.79 16.69-16.69 6.8 6.7-16.74 16.73zm44.6-11.02h22.66v-24.36q0-3.45.46-7.62zm33.73 0h9.37v7.37q0 1.03-.67 1.77-.67.75-1.9.75h-6.8v18.18h-11.07v-18.18h-31.42q-1.29 0-2.26-.8-.98-.8-1.24-1.98l-1.34-6.44 35.28-47.12h12.05zm41.87 18.95q3.14 0 5.51-.9t3.99-2.49q1.62-1.6 2.45-3.82.82-2.21.82-4.79 0-6.12-3.4-9.27-3.4-3.14-9.37-3.14t-9.37 3.14q-3.4 3.15-3.4 9.27 0 2.58.82 4.79.83 2.22 2.45 3.82 1.62 1.59 3.99 2.49t5.51.9m0-56.59q-2.83 0-4.89.87-2.06.88-3.43 2.34-1.36 1.47-2.01 3.38-.64 1.9-.64 4.01 0 2.22.54 4.31.54 2.08 1.83 3.7 1.29 1.63 3.4 2.6 2.11.98 5.2.98t5.2-.98q2.11-.97 3.4-2.6 1.29-1.62 1.83-3.7.54-2.09.54-4.31 0-2.11-.67-4.01-.67-1.91-2.01-3.38-1.34-1.46-3.4-2.34-2.06-.87-4.89-.87m12.57 26.88q6.79 2.21 10.04 6.77 3.24 4.56 3.24 11.15 0 4.94-1.88 8.96t-5.28 6.85-8.16 4.38q-4.76 1.54-10.53 1.54t-10.53-1.54q-4.77-1.55-8.17-4.38-3.39-2.83-5.27-6.85t-1.88-8.96q0-6.59 3.24-11.15 3.25-4.56 10.04-6.77-5.4-2.27-8.11-6.44-2.7-4.17-2.7-10.04 0-4.22 1.72-7.88 1.73-3.66 4.82-6.36t7.39-4.22 9.45-1.52 9.45 1.52 7.39 4.22 4.81 6.36q1.73 3.66 1.73 7.88 0 5.87-2.7 10.04-2.71 4.17-8.11 6.44m74.46 1.6q0 9.73-2.08 16.91-2.09 7.19-5.77 11.87-3.68 4.69-8.7 6.98t-10.84 2.29-10.79-2.29-8.63-6.98q-3.66-4.68-5.72-11.87-2.06-7.18-2.06-16.91 0-9.79 2.06-16.95t5.72-11.84q3.66-4.69 8.63-6.98t10.79-2.29 10.84 2.29 8.7 6.98q3.68 4.68 5.77 11.84 2.08 7.16 2.08 16.95m-13.13 0q0-8.09-1.18-13.39-1.19-5.31-3.17-8.45t-4.56-4.4q-2.57-1.27-5.35-1.27-2.73 0-5.28 1.27-2.55 1.26-4.51 4.4t-3.11 8.45q-1.16 5.3-1.16 13.39 0 8.08 1.16 13.39 1.15 5.3 3.11 8.44t4.51 4.4q2.55 1.27 5.28 1.27 2.78 0 5.35-1.27 2.58-1.26 4.56-4.4t3.17-8.44q1.18-5.31 1.18-13.39"/></svg>